<svg viewBox="0 0 1920 102.502" fill="none" xmlns="http://www.w3.org/2000/svg">
<g id="hero/headline">
<path id="Vector" d="M1825.67 2.33248H1850.08L1896.69 68.0603H1897V2.33248H1920V100.307H1895.44L1848.98 34.7161H1848.67V100.307H1825.67V2.33248Z" fill="var(--fill-0, #121212)"/>
<path id="Vector_2" d="M1723.63 51.7315C1723.63 55.848 1724.15 59.8731 1725.19 63.8067C1726.34 67.6488 1728.11 71.125 1730.51 74.2353C1732.91 77.3456 1736.04 79.8613 1739.9 81.7824C1743.76 83.6119 1748.45 84.5267 1753.98 84.5267C1759.5 84.5267 1764.2 83.6119 1768.06 81.7824C1771.91 79.8613 1775.04 77.3456 1777.44 74.2353C1779.84 71.125 1781.56 67.6488 1782.6 63.8067C1783.75 59.8731 1784.32 55.848 1784.32 51.7315C1784.32 47.4319 1783.75 43.2696 1782.6 39.2445C1781.56 35.2195 1779.84 31.6518 1777.44 28.5415C1775.04 25.3397 1771.91 22.824 1768.06 20.9945C1764.2 19.0734 1759.5 18.1129 1753.98 18.1129C1748.45 18.1129 1743.76 19.0734 1739.9 20.9945C1736.04 22.824 1732.91 25.3397 1730.51 28.5415C1728.11 31.6518 1726.34 35.2195 1725.19 39.2445C1724.15 43.2696 1723.63 47.4319 1723.63 51.7315ZM1699.07 51.7315C1699.07 44.4131 1700.32 37.6437 1702.82 31.4231C1705.33 25.111 1708.92 19.6223 1713.62 14.9568C1718.31 10.2914 1724.05 6.63223 1730.83 3.97934C1737.71 1.32645 1745.43 0 1753.98 0C1762.63 0 1770.35 1.32645 1777.13 3.97934C1783.91 6.63223 1789.64 10.2914 1794.34 14.9568C1799.03 19.6223 1802.63 25.111 1805.13 31.4231C1807.63 37.6437 1808.88 44.4131 1808.88 51.7315C1808.88 58.8668 1807.63 65.5448 1805.13 71.7654C1802.63 77.8945 1799.03 83.246 1794.34 87.82C1789.64 92.3939 1783.91 96.0074 1777.13 98.6603C1770.35 101.222 1762.63 102.502 1753.98 102.502C1745.43 102.502 1737.71 101.222 1730.83 98.6603C1724.05 96.0074 1718.31 92.3939 1713.62 87.82C1708.92 83.246 1705.33 77.8945 1702.82 71.7654C1700.32 65.5448 1699.07 58.8668 1699.07 51.7315Z" fill="var(--fill-0, #121212)"/>
<path id="Vector_3" d="M1657.78 2.33248H1682.34V100.307H1657.78V2.33248Z" fill="var(--fill-0, #121212)"/>
<path id="Vector_4" d="M1586.87 20.4454H1553.4V2.33248H1644.91V20.4454H1611.43V100.307H1586.87V20.4454Z" fill="var(--fill-0, #121212)"/>
<path id="Vector_5" d="M1520.67 35.2652C1520.25 32.7953 1519.31 30.554 1517.85 28.5415C1516.39 26.4375 1514.57 24.6079 1512.38 23.0527C1510.19 21.4976 1507.68 20.3084 1504.87 19.4851C1502.16 18.5703 1499.29 18.1129 1496.26 18.1129C1490.74 18.1129 1486.04 19.0734 1482.19 20.9945C1478.33 22.824 1475.2 25.3397 1472.8 28.5415C1470.4 31.6518 1468.63 35.2195 1467.48 39.2445C1466.44 43.2696 1465.92 47.4319 1465.92 51.7315C1465.92 55.848 1466.44 59.8731 1467.48 63.8067C1468.63 67.6488 1470.4 71.125 1472.8 74.2353C1475.2 77.3456 1478.33 79.8613 1482.19 81.7824C1486.04 83.6119 1490.74 84.5267 1496.26 84.5267C1503.77 84.5267 1509.61 82.5142 1513.78 78.4891C1518.06 74.464 1520.67 69.1582 1521.61 62.5717H1545.38C1544.76 68.7008 1543.14 74.2353 1540.53 79.1752C1537.93 84.1151 1534.49 88.3231 1530.21 91.7993C1525.93 95.2755 1520.93 97.9284 1515.19 99.758C1509.46 101.588 1503.15 102.502 1496.26 102.502C1487.71 102.502 1480 101.222 1473.11 98.6603C1466.33 96.0074 1460.6 92.3939 1455.91 87.82C1451.21 83.246 1447.61 77.8945 1445.11 71.7654C1442.61 65.5448 1441.36 58.8668 1441.36 51.7315C1441.36 44.4131 1442.61 37.6437 1445.11 31.4231C1447.61 25.111 1451.21 19.6223 1455.91 14.9568C1460.6 10.2914 1466.33 6.63223 1473.11 3.97934C1480 1.32645 1487.71 0 1496.26 0C1502.42 0 1508.21 0.777571 1513.63 2.33271C1519.16 3.88786 1524.06 6.17484 1528.33 9.19365C1532.71 12.121 1536.31 15.7801 1539.13 20.1711C1541.94 24.5621 1543.71 29.5935 1544.44 35.2652H1520.67Z" fill="var(--fill-0, #121212)"/>
<path id="Vector_6" d="M1330.26 2.33248H1354.66L1401.28 68.0603H1401.59V2.33248H1424.59V100.307H1400.03L1353.57 34.7161H1353.26V100.307H1330.26V2.33248Z" fill="var(--fill-0, #121212)"/>
<path id="Vector_7" d="M1309.11 63.2576C1309.11 76.5221 1304.89 86.4018 1296.44 92.8968C1287.99 99.3004 1276.31 102.502 1261.4 102.502C1246.28 102.502 1234.55 99.3004 1226.2 92.8968C1217.96 86.4933 1213.84 76.6136 1213.84 63.2576V2.33248H1238.4V63.2576C1238.4 65.9105 1238.66 68.5177 1239.19 71.0791C1239.71 73.6405 1240.8 75.9275 1242.47 77.94C1244.14 79.8611 1246.43 81.4619 1249.35 82.7427C1252.38 83.9319 1256.39 84.5265 1261.4 84.5265C1270.16 84.5265 1276.21 82.8341 1279.54 79.4494C1282.88 75.9732 1284.55 70.5759 1284.55 63.2576V2.33248H1309.11V63.2576Z" fill="var(--fill-0, #121212)"/>
<path id="Vector_8" d="M1121.59 2.33248H1200.12V20.4454H1146.15V43.0864H1192.92V59.8271H1146.15V100.307H1121.59V2.33248Z" fill="var(--fill-0, #121212)"/>
<path id="Vector_9" d="M976.006 51.7315C976.006 55.848 976.527 59.8731 977.57 63.8067C978.717 67.6488 980.49 71.125 982.888 74.2353C985.287 77.3456 988.416 79.8613 992.274 81.7824C996.133 83.6119 1000.83 84.5267 1006.35 84.5267C1011.88 84.5267 1016.57 83.6119 1020.43 81.7824C1024.29 79.8613 1027.42 77.3456 1029.82 74.2353C1032.22 71.125 1033.94 67.6488 1034.98 63.8067C1036.13 59.8731 1036.7 55.848 1036.7 51.7315C1036.7 47.4319 1036.13 43.2696 1034.98 39.2445C1033.94 35.2195 1032.22 31.6518 1029.82 28.5415C1027.42 25.3397 1024.29 22.824 1020.43 20.9945C1016.57 19.0734 1011.88 18.1129 1006.35 18.1129C1000.83 18.1129 996.133 19.0734 992.274 20.9945C988.416 22.824 985.287 25.3397 982.888 28.5415C980.49 31.6518 978.717 35.2195 977.57 39.2445C976.527 43.2696 976.006 47.4319 976.006 51.7315ZM951.446 51.7315C951.446 44.4131 952.697 37.6437 955.2 31.4231C957.703 25.111 961.301 19.6223 965.994 14.9568C970.687 10.2914 976.423 6.63223 983.201 3.97934C990.084 1.32645 997.801 0 1006.35 0C1015.01 0 1022.73 1.32645 1029.5 3.97934C1036.28 6.63223 1042.02 10.2914 1046.71 14.9568C1051.4 19.6223 1055 25.111 1057.51 31.4231C1060.01 37.6437 1061.26 44.4131 1061.26 51.7315C1061.26 58.8668 1060.01 65.5448 1057.51 71.7654C1055 77.8945 1051.4 83.246 1046.71 87.82C1042.02 92.3939 1036.28 96.0074 1029.5 98.6603C1022.73 101.222 1015.01 102.502 1006.35 102.502C997.801 102.502 990.084 101.222 983.201 98.6603C976.423 96.0074 970.687 92.3939 965.994 87.82C961.301 83.246 957.703 77.8945 955.2 71.7654C952.697 65.5448 951.446 58.8668 951.446 51.7315Z" fill="var(--fill-0, #121212)"/>
<path id="Vector_10" d="M885.383 20.4454H851.907V2.33248H943.418V20.4454H909.943V100.307H885.383V20.4454Z" fill="var(--fill-0, #121212)"/>
<path id="Vector_11" d="M725.743 82.1938H747.643C751.189 82.1938 754.63 81.6906 757.967 80.6844C761.305 79.6781 764.277 78.0315 766.884 75.7445C769.491 73.366 771.577 70.3015 773.141 66.5509C774.705 62.8002 775.488 58.2262 775.488 52.829C775.488 47.8891 774.914 43.4524 773.767 39.5188C772.724 35.4937 770.951 32.0632 768.448 29.2274C765.945 26.3915 762.608 24.2417 758.437 22.7781C754.369 21.2229 749.312 20.4454 743.263 20.4454H725.743V82.1938ZM701.184 2.33248H749.364C756.559 2.33248 763.234 3.33876 769.387 5.3513C775.644 7.36384 781.015 10.3827 785.499 14.4077C790.088 18.4328 793.633 23.4642 796.136 29.5018C798.743 35.5394 800.047 42.629 800.047 50.7707C800.047 57.9061 799.004 64.4926 796.918 70.5302C794.833 76.5678 791.652 81.7821 787.376 86.1731C783.205 90.5641 777.938 94.0403 771.577 96.6018C765.32 99.0717 757.915 100.307 749.364 100.307H701.184V2.33248Z" fill="var(--fill-0, #121212)"/>
<path id="Vector_12" d="M599.748 2.33248H683.281V20.4454H624.307V41.4398H678.432V58.1805H624.307V82.1938H684.533V100.307H599.748V2.33248Z" fill="var(--fill-0, #121212)"/>
<path id="Vector_13" d="M483.8 2.33248H508.203L554.819 68.0603H555.132V2.33248H578.127V100.307H553.567L507.108 34.7161H506.795V100.307H483.8V2.33248Z" fill="var(--fill-0, #121212)"/>
<path id="Vector_14" d="M445.82 89.1922C441.44 94.132 436.591 97.6083 431.273 99.6208C425.954 101.542 420.583 102.502 415.16 102.502C406.609 102.502 398.892 101.222 392.009 98.6603C385.23 96.0074 379.494 92.3939 374.801 87.82C370.109 83.246 366.511 77.8945 364.008 71.7654C361.505 65.5448 360.254 58.8668 360.254 51.7315C360.254 44.4131 361.505 37.6437 364.008 31.4231C366.511 25.111 370.109 19.6223 374.801 14.9568C379.494 10.2914 385.23 6.63223 392.009 3.97934C398.892 1.32645 406.609 0 415.16 0C420.896 0 426.423 0.777571 431.742 2.33271C437.165 3.79638 442.014 5.99188 446.29 8.91922C450.67 11.8465 454.268 15.46 457.083 19.7595C459.899 24.059 461.62 28.9989 462.246 34.5791H438.781C437.321 29.0904 434.505 24.9738 430.334 22.2294C426.163 19.4851 421.105 18.1129 415.16 18.1129C409.633 18.1129 404.94 19.0734 401.082 20.9945C397.223 22.824 394.094 25.3397 391.696 28.5415C389.297 31.6518 387.524 35.2195 386.377 39.2445C385.334 43.2696 384.813 47.4319 384.813 51.7315C384.813 55.848 385.334 59.8731 386.377 63.8067C387.524 67.6488 389.297 71.125 391.696 74.2353C394.094 77.3456 397.223 79.8613 401.082 81.7824C404.94 83.6119 409.633 84.5267 415.16 84.5267C423.295 84.5267 429.552 82.7429 433.932 79.1752C438.416 75.516 441.023 70.256 441.753 63.395H417.037V47.3405H463.966V100.307H448.323L445.82 89.1922Z" fill="var(--fill-0, #121212)"/>
<path id="Vector_15" d="M318.97 2.33248H343.53V100.307H318.97V2.33248Z" fill="var(--fill-0, #121212)"/>
<path id="Vector_16" d="M234.119 67.786C234.119 71.0793 234.797 73.8694 236.153 76.1564C237.509 78.4434 239.281 80.3187 241.471 81.7824C243.766 83.1545 246.425 84.2066 249.449 84.9384C252.474 85.5787 255.602 85.8989 258.835 85.8989C261.025 85.8989 263.372 85.7617 265.874 85.4873C268.377 85.1213 270.724 84.481 272.914 83.5662C275.104 82.6514 276.929 81.4164 278.389 79.8613C279.849 78.2147 280.579 76.1564 280.579 73.6865C280.579 71.0336 279.588 68.8838 277.607 67.2372C275.73 65.5905 273.227 64.2184 270.098 63.1206C266.969 62.0229 263.424 61.0623 259.461 60.239C255.498 59.4157 251.483 58.5009 247.416 57.4946C243.244 56.5798 239.177 55.4821 235.214 54.2014C231.251 52.8292 227.706 51.0911 224.577 48.9871C221.449 46.8831 218.893 44.2759 216.912 41.1656C215.035 37.9638 214.096 34.1217 214.096 29.6392C214.096 24.6079 215.296 20.2626 217.694 16.6035C220.197 12.8528 223.43 9.74253 227.393 7.27259C231.356 4.80265 235.84 2.97307 240.846 1.78384C245.852 0.594612 250.857 0 255.863 0C261.703 0 267.282 0.594612 272.601 1.78384C278.024 2.88159 282.821 4.71117 286.992 7.27259C291.164 9.834 294.449 13.1273 296.848 17.1523C299.35 21.0859 300.602 25.8886 300.602 31.5603H276.825C276.616 28.633 275.886 26.2088 274.635 24.2877C273.487 22.3666 271.923 20.8572 269.942 19.7595C267.96 18.6617 265.666 17.8842 263.059 17.4268C260.556 16.9694 257.792 16.7407 254.768 16.7407C252.787 16.7407 250.805 16.9236 248.824 17.2896C246.842 17.6555 245.017 18.2958 243.349 19.2106C241.784 20.1254 240.481 21.2689 239.438 22.6411C238.395 24.0133 237.874 25.7514 237.874 27.8554C237.874 29.7765 238.291 31.3316 239.125 32.5208C239.959 33.7101 241.576 34.8078 243.974 35.8141C246.477 36.8204 249.867 37.8266 254.142 38.8329C258.522 39.8392 264.206 41.1199 271.193 42.675C273.279 43.0409 276.147 43.727 279.797 44.7333C283.551 45.6481 287.253 47.1575 290.903 49.2615C294.553 51.3655 297.682 54.2014 300.289 57.7691C303 61.2453 304.356 65.7278 304.356 71.2165C304.356 75.699 303.365 79.8613 301.384 83.7034C299.403 87.5455 296.43 90.8845 292.467 93.7204C288.609 96.4648 283.76 98.6145 277.92 100.17C272.184 101.725 265.509 102.502 257.897 102.502C251.744 102.502 245.747 101.816 239.907 100.444C234.171 99.1634 229.061 97.1051 224.577 94.2693C220.197 91.4334 216.703 87.82 214.096 83.429C211.489 79.038 210.238 73.8237 210.342 67.786H234.119Z" fill="var(--fill-0, #121212)"/>
<path id="Vector_17" d="M115.948 2.33248H199.481V20.4454H140.507V41.4398H194.632V58.1805H140.507V82.1938H200.733V100.307H115.948V2.33248Z" fill="var(--fill-0, #121212)"/>
<path id="Vector_18" d="M24.5594 82.1938H46.4595C50.0053 82.1938 53.4467 81.6906 56.7839 80.6844C60.1211 79.6781 63.0932 78.0315 65.7004 75.7445C68.3075 73.366 70.3933 70.3015 71.9575 66.5509C73.5218 62.8002 74.304 58.2262 74.304 52.829C74.304 47.8891 73.7304 43.4524 72.5833 39.5188C71.5404 35.4937 69.7675 32.0632 67.2647 29.2274C64.7618 26.3915 61.4246 24.2417 57.2532 22.7781C53.186 21.2229 48.1281 20.4454 42.0795 20.4454H24.5594V82.1938ZM0 2.33248H48.1803C55.376 2.33248 62.0503 3.33876 68.2032 5.3513C74.4604 7.36384 79.8312 10.3827 84.3155 14.4077C88.9041 18.4328 92.4498 23.4642 94.9527 29.5018C97.5598 35.5394 98.8634 42.629 98.8634 50.7707C98.8634 57.9061 97.8206 64.4926 95.7348 70.5302C93.6491 76.5678 90.4684 81.7821 86.1926 86.1731C82.0212 90.5641 76.7547 94.0403 70.3933 96.6018C64.1361 99.0717 56.7317 100.307 48.1803 100.307H0V2.33248Z" fill="var(--fill-0, #121212)"/>
</g>
</svg>
