<svg preserveAspectRatio="none" width="100%" height="100%" overflow="visible" style="display: block;" viewBox="0 0 36 36" fill="none" xmlns="http://www.w3.org/2000/svg">
<g id="header/logo">
<path id="Exclude" d="M23.5497 4.2002C28.6029 4.2002 32.6998 8.29638 32.7001 13.3496C32.7001 18.403 28.6031 22.5 23.5497 22.5C21.3935 22.4999 19.4133 21.7517 17.8495 20.5039V31.7998H14.4003V18.75L6.15026 9L6.29967 31.7998H2.99986V4.34961H7.04967L14.4051 13.1465C14.5134 8.1872 18.5645 4.20037 23.5497 4.2002ZM23.5497 7.5C20.3681 7.50018 17.7809 10.0403 17.703 13.2031L17.7001 13.2002V16.7998C17.7001 16.7998 17.79 16.8925 17.8495 16.9502C18.5139 17.5953 18.9742 17.8803 19.7997 18.2998C20.576 18.6943 21.0465 18.8784 21.9003 19.0498C22.2407 19.1181 22.691 19.1551 23.035 19.1758C23.2046 19.1906 23.3762 19.2002 23.5497 19.2002C26.7805 19.2002 29.4003 16.5805 29.4003 13.3496C29.4 10.1189 26.7804 7.5 23.5497 7.5Z" fill="var(--fill-0, #121212)"/>
</g>
</svg>
